inDegrees=yes
name=ik_OwnShooting_orientations2.mot
DataType=double
version=3
OpenSimVersion=4.3-2021-08-27-4bc7ad9
endheader
time	pelvis_tilt	pelvis_list	pelvis_rotation	pelvis_tx	pelvis_ty	pelvis_tz	hip_flexion_r	hip_adduction_r	hip_rotation_r	knee_angle_r	knee_angle_r_beta	ankle_angle_r	subtalar_angle_r	mtp_angle_r	hip_flexion_l	hip_adduction_l	hip_rotation_l	knee_angle_l	knee_angle_l_beta	ankle_angle_l	subtalar_angle_l	mtp_angle_l	lumbar_extension	lumbar_bending	lumbar_rotation	arm_flex_r	arm_add_r	arm_rot_r	elbow_flex_r	pro_sup_r	wrist_flex_r	wrist_dev_r	arm_flex_l	arm_add_l	arm_rot_l	elbow_flex_l	pro_sup_l	wrist_flex_l	wrist_dev_l
5	1.830720735581673	-0.260123531305237	149.4247004999471	0	0.9399999999999999	0	2.548345022480758	-1.099951376051856	0	5.783655949428518	0.1009438391200863	-0.6375564448469738	0	0	2.548345022480758	-1.099951376051856	0	5.783655949428518	0.1009438391200863	-0.6375564448469738	0	0	13.81027640626779	-4.307592516520972	6.133536114664689	-3.769903622398032	13.26557369531842	50.06851966613561	0.006722349116891048	7.13854666888959	0	0	0	-0.4968541967619591	0	7.260759733372784	7.13854666888959	0	0
5.01	1.835452793548802	-0.262431909150969	149.4135293141466	0	0.9399999999999999	0	43.69371192417965	-10.03949003150596	0	59.45360543460158	1.037661167015392	-4.974037957434995	0	0	43.69371192417965	-10.03949003150596	0	59.45360543460158	1.037661167015392	-4.974037957434995	0	0	13.79719396892962	-4.337094344628966	6.125848493388148	-2.840100673064614	6.430750850204634	47.89442847459208	0.00901795200225974	45.15588015833495	0	0	0	-11.97292380367882	0	76.08305186004475	45.15588015833495	0	0
5.02	1.826601546182776	-0.2717146465834631	149.4055836941083	0	0.9399999999999999	0	43.69809610036019	-10.03916011224334	0	59.4554011270865	1.037692507761607	-4.97430041500491	0	0	43.69809610036019	-10.03916011224334	0	59.4554011270865	1.037692507761607	-4.97430041500491	0	0	13.78352373295403	-4.353391785551458	6.137461145681669	-2.225158034195134	1.691226920517784	47.04057958391535	0.01107176264659454	45.15477983703396	0	0	0	-11.97903174669844	0	76.07941768150869	45.15477983703396	0	0
5.03	1.814486101635449	-0.2794358420111328	149.3892287530861	0	0.9399999999999999	0	43.70219406509126	-10.03885199932011	0	59.45707618561273	1.037721743048053	-4.974545381807278	0	0	43.70219406509126	-10.03885199932011	0	59.45707618561273	1.037721743048053	-4.974545381807278	0	0	13.76667756017174	-4.372756370152383	6.146850123776852	-1.642160302522994	5.626042917964874	47.37643052472082	0.008194456216784256	45.15375187222016	0	0	0	-11.98474009337282	0	76.07602075252611	45.15375187222016	0	0
5.04	1.814451064042099	-0.2923719851301614	149.3811582165197	0	0.9399999999999999	0	43.7085480400974	-10.03838393599057	0	59.45970005923473	1.037767538281913	-4.974915501935906	0	0	43.7085480400974	-10.03838393599057	0	59.45970005923473	1.037767538281913	-4.974915501935906	0	0	13.752699544751	-4.387007553841406	6.159153534241673	-2.143393755762572	12.94761529277867	48.34247681967813	0.006160018711841638	45.15218328352886	0	0	0	-11.99366038665295	0	76.07075373357952	45.15218328352886	0	0
5.05	1.812708865864311	-0.303774189410179	149.372107011947	0	0.9399999999999999	0	43.73605724344108	-10.03615404324268	0	59.4693219103112	1.037935471263334	-4.976670251727752	0	0	43.73605724344108	-10.03615404324268	0	59.4693219103112	1.037935471263334	-4.976670251727752	0	0	13.73692394109954	-4.395474353169368	6.167625395713624	-4.141840149609434	17.85029271746404	50.45635075011024	0.005305227787247164	45.14474409499186	0	0	0	-12.02887181030718	0	76.0479508575459	45.14474409499186	0	0
5.06	1.825440784077895	-0.3116502109384393	149.3676237735035	0	0.9399999999999999	0	43.75241331822459	-10.03472374047726	0	59.47495611563293	1.038033806696932	-4.977820975306066	0	0	43.75241331822459	-10.03472374047726	0	59.47495611563293	1.038033806696932	-4.977820975306066	0	0	13.72153484818918	-4.389101386594668	6.149213779516678	-4.788063485015025	20.57965909352746	51.41042716138207	0.004966804083978226	45.14005775669142	0	0	0	-12.04934690485098	0	76.03439315901356	45.14005775669142	0	0
5.07	1.841109670373135	-0.3144318260504076	149.3649499257429	0	0.9399999999999999	0	43.77103570489787	-10.03324655462148	0	59.48147544527522	1.038147590464213	-4.978972472936945	0	0	43.77103570489787	-10.03324655462148	0	59.48147544527522	1.038147590464213	-4.978972472936945	0	0	13.71595458549813	-4.398570095486106	6.144511191018264	-5.277959956699916	24.15763045427328	50.74472941527382	0.004755045741192496	45.13509843286676	0	0	0	-12.07330428561505	0	76.01895670733735	45.13509843286676	0	0
5.08	1.850444743008467	-0.3254578861466645	149.3602788372665	0	0.9399999999999999	0	43.78654008727661	-10.03198148070936	0	59.48693709304163	1.038242914200321	-4.979968945793547	0	0	43.78654008727661	-10.03198148070936	0	59.48693709304163	1.038242914200321	-4.979968945793547	0	0	13.72396824603216	-4.407612710462431	6.130601412750191	-4.495894583520379	26.74770328744986	49.01249931285419	0.004725608628869751	45.1308848942303	0	0	0	-12.09318381180596	0	76.00610487756613	45.1308848942303	0	0
5.09	1.847971839205153	-0.337096478811134	149.346254123859	0	0.9399999999999999	0	43.80623508919719	-10.03044813241064	0	59.49386257921594	1.038363786736364	-4.981156010834338	0	0	43.80623508919719	-10.03044813241064	0	59.49386257921594	1.038363786736364	-4.981156010834338	0	0	13.715518993512	-4.429445399408421	6.157522273807815	-2.426810971607407	29.61884585041692	47.47009910940967	0.004539087196444103	45.12571154279016	0	0	0	-12.11865547092329	0	75.9897792958659	45.12571154279016	0	0
5.1	1.857924492010653	-0.3320213025060247	149.3460410257325	0	0.9399999999999999	0	43.82075042531382	-10.02931675916207	0	59.49896174178561	1.038452783912299	-4.982029960748315	0	0	43.82075042531382	-10.02931675916207	0	59.49896174178561	1.038452783912299	-4.982029960748315	0	0	13.71169808087588	-4.426885494645711	6.158571077395708	-1.15886691148907	28.10125100573699	48.35917296474427	0.004809656493616047	45.1218910551405	0	0	0	-12.13737314165223	0	75.97774725819079	45.1218910551405	0	0
5.11	1.867766951931004	-0.3360591123463967	149.3359412986177	0	0.9399999999999999	0	43.85858494704708	-10.02695053339729	0	59.51271342634038	1.038692796085475	-4.983748907601488	0	0	43.85858494704708	-10.02695053339729	0	59.51271342634038	1.038692796085475	-4.983748907601488	0	0	13.7187591273025	-4.435654551634224	6.166513754293803	0.07820820794847556	23.75794129344537	46.66154603908271	0.005900492458577202	45.11348362021107	0	0	0	-12.18947497958939	0	75.94638468990338	45.11348362021107	0	0
5.12	1.864777477444943	-0.3477840863259513	149.3246623901721	0	0.9399999999999999	0	43.86778621732981	-10.02640678158918	0	59.5165999884842	1.038760629391468	-4.984147228942063	0	0	43.86778621732981	-10.02640678158918	0	59.5165999884842	1.038760629391468	-4.984147228942063	0	0	13.7088406660948	-4.459931272870361	6.192058823980393	-0.2441490894241067	17.97690386779929	45.10088819153294	0.008426375897115866	45.11155400171796	0	0	0	-12.20312678750569	0	75.93875732291919	45.11155400171796	0	0
5.13	1.869849617435389	-0.3587465911052173	149.3150336861196	0	0.9399999999999999	0	43.87712549639988	-10.02586474322026	0	59.52054524301979	1.038829487072944	-4.984541694039547	0	0	43.87712549639988	-10.02586474322026	0	59.52054524301979	1.038829487072944	-4.984541694039547	0	0	13.69402878746148	-4.477087631935816	6.203414322051657	0.03228305492482066	10.63500753924872	44.54989900825384	0.01476023871685426	45.10962117259695	0	0	0	-12.21704393073603	0	75.93101554488192	45.10962117259695	0	0
5.14	1.862160604165822	-0.3542145490823755	149.3241744421368	0	0.9399999999999999	0	43.88348473765979	-10.02550234333012	0	59.5232161765101	1.038876103656452	-4.984803373892839	0	0	43.88348473765979	-10.02550234333012	0	59.5232161765101	1.038876103656452	-4.984803373892839	0	0	13.66622625909356	-4.487950535853781	6.201619248508335	1.098560339337213	0.8706750139478464	44.25008109104031	0.08843576943181893	45.10832178433429	0	0	0	-12.2265439320498	0	75.92574405999697	45.10832178433429	0	0
5.15	1.87326098095706	-0.3661810389583712	149.3132484365073	0	0.9399999999999999	0	43.89200147501379	-10.02499903421682	0	59.52669260622401	1.038936778801173	-4.985169390276701	0	0	43.89200147501379	-10.02499903421682	0	59.52669260622401	1.038936778801173	-4.985169390276701	0	0	13.66452610167872	-4.466846649635433	6.200489063109577	-0.8708813875221635	-9.302918777863917	42.23392713880492	9.405684794390355	45.10652925500106	0	0	0	-12.23905213030143	0	75.91868414964173	45.10652925500106	0	0
5.16	1.878365722462406	-0.3716843619130027	149.3169662371807	0	0.9399999999999999	0	43.89400486094833	-10.02487434614008	0	59.52749143104258	1.038950720924404	-4.985261406472781	0	0	43.89400486094833	-10.02487434614008	0	59.52749143104258	1.038950720924404	-4.985261406472781	0	0	13.65473735797169	-4.470178382900293	6.187094782418614	0.8019885827079912	-9.19527559475501	43.57021822083405	9.041244965585442	45.10609038688165	0	0	0	-12.24194116153729	0	75.91702345918253	45.10609038688165	0	0
5.17	1.888684392824397	-0.3776894905191823	149.3110707150746	0	0.9399999999999999	0	43.90073673138428	-10.02449782251845	0	59.53031836158128	1.03900006017003	-4.985531472427509	0	0	43.90073673138428	-10.02449782251845	0	59.53031836158128	1.03900006017003	-4.985531472427509	0	0	13.67270237772263	-4.473582150041379	6.19110106580047	5.993874493804858	3.730487603609477	47.4857415274148	0.02661183081307373	45.10473373655416	0	0	0	-12.25204783335928	0	75.91144307655939	45.10473373655416	0	0
5.18	1.890524129290109	-0.3756630344092917	149.3105774999044	0	0.9399999999999999	0	43.9066825013802	-10.02417370483432	0	59.53283066312569	1.039043908103783	-4.985762045518502	0	0	43.9066825013802	-10.02417370483432	0	59.53283066312569	1.039043908103783	-4.985762045518502	0	0	13.66134299447801	-4.457231787241057	6.18437537166132	6.179941829289569	13.61409602498125	47.2019609891294	0.01096669763344293	45.10355852410318	0	0	0	-12.26104405324237	0	75.90651432244559	45.10355852410318	0	0
5.19	1.888350779188161	-0.3938259676826076	149.2959632500645	0	0.9399999999999999	0	43.90971132053734	-10.02400669179324	0	59.53409792763259	1.039066026041922	-4.98588116867351	0	0	43.90971132053734	-10.02400669179324	0	59.53409792763259	1.039066026041922	-4.98588116867351	0	0	13.65212515068051	-4.484665888656541	6.206180651796145	4.786665107202011	17.50015310054152	48.18263809157908	0.00924218355621312	45.10295434715911	0	0	0	-12.26560422148173	0	75.9040035816208	45.10295434715911	0	0
5.2	1.882392482237613	-0.3854497957249194	149.3100915253247	0	0.9399999999999999	0	43.91009533541055	-10.02397708708464	0	59.53422650239364	1.039068270094837	-4.985903889711116	0	0	43.91009533541055	-10.02397708708464	0	59.53422650239364	1.039068270094837	-4.985903889711116	0	0	13.6405018154434	-4.489172934214978	6.19959459541602	4.369999183069595	19.18624642076227	49.34772303669067	0.008228874128865062	45.10285395659383	0	0	0	-12.26609682812746	0	75.90368526332507	45.10285395659383	0	0
5.21	1.868329502134325	-0.3863779854609929	149.3151358755343	0	0.9399999999999999	0	43.92427533167102	-10.02301059732695	0	59.53925542472818	1.039156041347401	-4.986618427487668	0	0	43.92427533167102	-10.02301059732695	0	59.53925542472818	1.039156041347401	-4.986618427487668	0	0	13.62743792487248	-4.502386833044897	6.198428391891524	5.715963095480392	21.49179805616159	47.96602137580201	0.007192624873492946	45.0994802009802	0	0	0	-12.28512781579589	0	75.89193102310155	45.0994802009802	0	0
